<svg xmlns="http://www.w3.org/2000/svg" xml:space="preserve" viewBox="0 0 1000 1000">
   <style>
    .animatable {
        fill: none;
        stroke: #fff;
        stroke-width: 45.2313;
        stroke-linecap: round;
        stroke-linejoin: round;
        stroke-miterlimit: 10;
    }
  </style>
  <path d="M86.03 120.44c-12.15 0-21.99 9.52-21.99 21.28 0 11.75 9.84 21.28 21.99 21.28 21.61 0 39.19 17.01 39.19 37.91v260.04c0 11.75 9.84 21.28 21.99 21.28 22.59 0 40.97 17.78 40.97 39.64s-18.38 39.64-40.97 39.64c-12.15 0-21.99 9.52-21.99 21.28v260.04c0 20.91-17.58 37.91-39.19 37.91-12.15 0-21.99 9.52-21.99 21.28 0 11.75 9.84 21.28 21.99 21.28h74.65c41.19-4.76 73.38-39.35 73.38-80.47V600.9c36.14-9.45 62.95-41.13 62.95-79.04s-26.82-69.59-62.95-79.04V200.9c0-41.5-32.84-76.22-74.59-80.47H86.03zM548.28 583.86h-110.8v339.42h110.8c50.96 0 92.27-41.31 92.27-92.27V676.14c0-50.97-41.31-92.28-92.27-92.28zM531.7 842c0 19.98-16.2 36.18-36.19 36.18h-12.8V629.09h39.94c5 0 9.05 4.05 9.05 9.05V842zM548.29 245.27H437.48v212.51h110.81c50.96 0 92.26-41.31 92.26-92.26v-27.99c0-50.95-41.31-92.26-92.26-92.26zM531.7 403.51c0 5-4.05 9.05-9.05 9.05h-39.94V290.5h12.8c19.98 0 36.19 16.2 36.19 36.18v76.83z" fill=" #fff"/>
  <path class="animatable" d="M926.22 902.91c-3.94.08-24.57.09-41.56-16.18-17.58-16.84-17.95-38.39-17.96-42.12V694c-.77-64.1-7.35-87.27-22.69-110.55-22.88-34.7-57.46-51.26-79.4-59.2 18.34-13.49 87.19-67.43 105.23-163.22 19.12-101.54-29.36-194.26-87.24-245.08-98.31-86.33-264.94-88-396.92 8.66"/>
</svg>
