<svg xmlns="http://www.w3.org/2000/svg" viewBox="0 0 26 26"><path d="M.6 6.9l12 5c.1 0 .2.1.4.1s.3 0 .4-.1l12-5c.4-.2.6-.5.6-.9s-.3-.8-.6-.9l-12-5c-.1 0-.2-.1-.4-.1s-.3 0-.4.1l-12 5c-.4.2-.6.5-.6.9s.3.8.6.9zM13 4.2L17.2 6 13 7.8 8.8 6 13 4.2z"/><path d="M24.6 9.9L13 14.7 1.4 9.9c-.7-.3-1.4.2-1.4.9V13c0 .4.3.8.6.9l12 5c.1 0 .2.1.4.1s.3 0 .4-.1l12-5c.4-.2.6-.5.6-.9v-2.2c0-.7-.7-1.2-1.4-.9z"/><path d="M24.6 16.9L13 21.7 1.4 16.9c-.7-.3-1.4.2-1.4.9V20c0 .4.3.8.6.9l12 5c.1 0 .2.1.4.1s.3 0 .4-.1l12-5c.4-.2.6-.5.6-.9v-2.2c0-.7-.7-1.2-1.4-.9z"/></svg>