<svg xmlns="http://www.w3.org/2000/svg" width="81.748" height="81.749" viewBox="0 0 81.748 81.749"><path d="M59.098 0h-36.45c-3.035 0-5.52 2.48-5.52 5.52v70.706c0 3.04 2.485 5.522 5.52 5.522H59.1c3.035 0 5.52-2.48 5.52-5.522V5.52C64.62 2.48 62.135 0 59.1 0zM35.043 3.978h11.66c.37 0 .67.3.67.67 0 .367-.3.666-.67.666h-11.66c-.368 0-.668-.3-.668-.665 0-.37.3-.672.668-.672zm5.83 75.016c-1.52 0-2.76-1.236-2.76-2.768 0-1.525 1.236-2.76 2.76-2.76 1.526 0 2.76 1.234 2.76 2.76 0 1.53-1.237 2.768-2.76 2.768zm19.905-7.46h-39.81V8.755h39.81v62.78zM40.466 26.408V55.07s-7.683-6.22-9.22-9.218c-1.752-3.425-2.29-12.65-1.156-15.718l10.376-3.727zm11.19 3.722c1.134 3.066.598 12.295-1.153 15.717-1.538 2.997-9.22 9.218-9.22 9.218V26.407l10.373 3.722z"/></svg>