<svg xmlns="http://www.w3.org/2000/svg" width="399.997" height="399.997" viewBox="0 0 399.997 399.997"><path d="M281.547 143.478c-.456-2.58-2.917-4.305-5.5-3.85l-17.05 3.004c-2.048-4.803-4.663-9.302-7.765-13.418l11.14-13.272c.808-.965 1.2-2.21 1.093-3.466-.11-1.256-.715-2.414-1.68-3.225l-14.913-12.513c-.964-.81-2.213-1.202-3.468-1.093-1.254.11-2.413.714-3.224 1.678l-11.13 13.265c-4.566-2.326-9.45-4.123-14.57-5.306V87.97c0-2.625-2.125-4.752-4.748-4.752h-19.466c-2.622 0-4.748 2.127-4.748 4.75v17.313c-5.122 1.184-10.004 2.98-14.572 5.307l-11.128-13.265c-1.688-2.008-4.682-2.27-6.69-.584l-14.913 12.513c-.966.812-1.568 1.97-1.68 3.226-.107 1.255.284 2.5 1.094 3.466l11.137 13.272c-3.102 4.116-5.716 8.617-7.763 13.418l-17.05-3.005c-2.58-.454-5.045 1.27-5.5 3.85l-3.382 19.174c-.218 1.24.064 2.52.788 3.55.722 1.032 1.823 1.733 3.064 1.95l17.063 3.012c.277 5.284 1.197 10.398 2.68 15.268l-14.994 8.657c-1.092.63-1.886 1.665-2.213 2.882-.325 1.218-.154 2.513.475 3.603l9.733 16.86c.63 1.092 1.667 1.886 2.885 2.212.403.11.816.163 1.23.163.825 0 1.644-.216 2.372-.638l15.01-8.664c3.532 3.776 7.517 7.127 11.867 9.967l-5.926 16.277c-.43 1.184-.375 2.49.158 3.63.533 1.143 1.496 2.023 2.68 2.456l18.294 6.658c.524.19 1.075.286 1.625.286.686 0 1.37-.15 2.005-.444 1.142-.532 2.025-1.496 2.456-2.68l5.925-16.28c2.54.308 5.126.47 7.75.47s5.21-.162 7.75-.47l5.925 16.28c.432 1.184 1.313 2.145 2.455 2.68.636.295 1.318.444 2.007.444.55 0 1.1-.097 1.623-.286l18.295-6.658c1.185-.433 2.146-1.313 2.68-2.457.533-1.143.59-2.446.158-3.63l-5.927-16.277c4.352-2.84 8.335-6.188 11.868-9.967l15.01 8.664c.728.422 1.546.637 2.372.637.412 0 .826-.053 1.23-.162 1.217-.326 2.252-1.12 2.883-2.212l9.73-16.86c.632-1.09.803-2.385.478-3.604-.327-1.218-1.123-2.254-2.213-2.883l-14.994-8.657c1.48-4.87 2.403-9.983 2.68-15.268l17.064-3.01c1.24-.22 2.34-.92 3.062-1.952.726-1.03 1.006-2.31.788-3.55l-3.377-19.172zM200 193.118c-14.424 0-26.117-11.693-26.117-26.117 0-14.423 11.693-26.115 26.117-26.115s26.117 11.692 26.117 26.116c0 14.425-11.693 26.117-26.117 26.117z"/><path d="M366.684 24.97H33.316C14.946 24.97 0 39.918 0 58.29V275.56c0 18.37 14.945 33.317 33.316 33.317h107.412l-20.387 44.955c-2.104 4.643-1.708 10.037 1.054 14.32 2.762 4.286 7.51 6.874 12.607 6.874H266.018c8.285 0 15-6.715 15-15 0-2.493-.605-4.848-1.686-6.916l-20.06-44.233h107.41c18.372 0 33.317-14.946 33.317-33.317V58.288c.003-18.37-14.942-33.317-33.313-33.317zM370 275.56c0 1.83-1.488 3.317-3.316 3.317H33.316c-1.828 0-3.316-1.487-3.316-3.316V58.29c0-1.83 1.488-3.317 3.316-3.317h333.367c1.828 0 3.316 1.49 3.316 3.318V275.56z"/></svg>