<svg xmlns="http://www.w3.org/2000/svg" width="412.996" height="412.996" viewBox="0 0 412.996 412.996"><path d="M392.996 28.338H20c-11.047 0-20 8.954-20 20v234c0 11.046 8.953 20 20 20h139.498v45.32h-54.283c-10.2 0-18.5 8.3-18.5 18.5s8.3 18.5 18.5 18.5H307.78c10.202 0 18.5-8.3 18.5-18.5s-8.298-18.5-18.5-18.5H253.5v-45.32h139.498c11.047 0 20-8.954 20-20v-234c0-11.046-8.953-20-20-20zm-10 244H30v-214h352.996v214z"/><path d="M94.59 176.637l63.085 29.336c1.63.755 3.367 1.138 5.162 1.138 2.338 0 4.616-.663 6.597-1.923 3.548-2.267 5.666-6.13 5.666-10.335v-.322c0-4.75-2.785-9.115-7.096-11.12l-39.455-18.33 39.455-18.333c4.31-2.004 7.095-6.37 7.095-11.118v-.32c0-4.21-2.12-8.074-5.665-10.334-1.962-1.254-4.247-1.916-6.606-1.916-1.78 0-3.564.39-5.16 1.133l-63.08 29.332c-4.308 2.005-7.09 6.37-7.09 11.117v.878c-.002 4.742 2.78 9.105 7.09 11.117zM175.662 236.39c2.3 3.148 6.002 5.028 9.9 5.028h.316c5.352 0 10.042-3.426 11.672-8.516l41.557-128.76c1.192-3.717.53-7.818-1.77-10.974-2.302-3.15-6.003-5.03-9.902-5.03h-.314c-5.353 0-10.047 3.426-11.678 8.516l-41.562 128.77c-1.182 3.72-.516 7.818 1.782 10.965zM237.896 135.628c0 4.746 2.782 9.11 7.095 11.122l39.456 18.33-39.455 18.33c-4.31 2.004-7.095 6.368-7.095 11.12v.32c0 4.206 2.117 8.07 5.67 10.337 1.973 1.258 4.253 1.923 6.594 1.923 1.79 0 3.526-.383 5.168-1.142l63.08-29.335c4.308-2.01 7.09-6.372 7.09-11.115v-.878c0-4.748-2.783-9.112-7.093-11.117l-63.08-29.334c-1.59-.74-3.373-1.132-5.152-1.132-2.358 0-4.644.662-6.604 1.912-3.555 2.264-5.674 6.127-5.674 10.338v.32z"/></svg>